<mxfile host="app.diagrams.net" modified="2024-01-29T02:17:03.232Z" agent="Mozilla/5.0 (Windows NT 10.0; Win64; x64) AppleWebKit/537.36 (KHTML, like Gecko) Chrome/121.0.0.0 Safari/537.36" version="23.0.2" etag="GPa3G0c09NzaUfTjodVS" type="github">
  <diagram name="페이지-1" id="x0Db4AUJ_wB2ovBf4vYt">
    <mxGraphModel>
      <root>
        <mxCell id="0" />
        <mxCell id="1" parent="0" />
      </root>
    </mxGraphModel>
  </diagram>
</mxfile>
